<svg width="795" height="571" viewBox="0 0 795 571" fill="none" xmlns="http://www.w3.org/2000/svg">
<g clip-path="url(#clip0)">
<g filter="url(#filter0_d)">
<path d="M465.265 99.7011C454.033 89.6845 434.822 86.5383 419.832 99.9056L231.242 268.092C229.855 266.854 228.049 266.025 226.062 265.776C223.224 265.424 220.364 266.276 218.338 268.083L199.611 284.783C196.045 281.604 190.262 281.604 186.695 284.783C183.129 287.964 183.129 293.121 186.695 296.302L145.697 332.864C145.695 332.865 145.692 332.868 145.69 332.87C145.687 332.872 145.686 332.874 145.684 332.876L22.6746 442.576C19.1085 445.757 19.1085 450.914 22.6746 454.095L45.2736 474.249C45.2745 474.249 45.2754 474.25 45.2754 474.251C45.2754 474.252 45.2772 474.252 45.2781 474.253L67.877 494.407C69.5893 495.934 71.9126 496.793 74.3345 496.793C76.7564 496.793 79.0797 495.934 80.792 494.407L231.899 359.65C233.682 361.239 236.019 362.035 238.356 362.035C240.693 362.035 243.03 361.239 244.814 359.65C248.38 356.469 248.381 351.313 244.815 348.131L263.541 331.43C266.424 328.859 267.046 324.895 265.066 321.716L263.799 319.681L465.036 140.218C480.025 126.851 476.497 109.717 465.265 99.7011ZM74.3345 477.129L64.6487 468.491L107.914 429.907C111.48 426.727 111.48 421.57 107.914 418.389C104.348 415.209 98.5654 415.209 94.9983 418.389L51.7329 456.973L42.0471 448.335L152.149 350.146L184.436 378.941L74.3345 477.129ZM197.351 367.423L165.064 338.628L206.064 302.064C206.066 302.063 206.068 302.061 206.07 302.06C206.071 302.058 206.072 302.056 206.074 302.056L222.693 287.235L245.756 324.256L197.351 367.423ZM452.121 128.7L254.574 304.873L240.737 282.661L432.748 111.423C440.067 104.895 447.881 107.234 452.35 111.218C456.818 115.204 459.439 122.173 452.121 128.7Z" fill="black"/>
<path d="M230.576 268.838L231.242 269.431L231.908 268.838L420.498 100.652C435.049 87.6756 453.685 90.7136 464.599 100.447L465.119 99.8648L464.599 100.447C470.05 105.308 473.59 111.86 473.985 118.76C474.378 125.631 471.661 132.97 464.37 139.472L263.133 318.935L262.505 319.496L262.95 320.21L264.218 322.245C264.218 322.245 264.218 322.245 264.218 322.245C265.928 324.992 265.413 328.422 262.876 330.684L244.149 347.385L243.312 348.131L244.149 348.877C247.269 351.661 247.268 356.12 244.148 358.903C242.565 360.314 240.472 361.035 238.356 361.035C236.24 361.035 234.147 360.314 232.564 358.903L231.898 358.31L231.233 358.903L80.1264 493.661C78.6081 495.015 76.5258 495.793 74.3345 495.793C72.1433 495.793 70.061 495.015 68.5426 493.661L45.9437 473.506C45.9349 473.499 45.9261 473.491 45.9173 473.484L23.3403 453.349C20.2198 450.565 20.22 446.105 23.3402 443.323L146.291 333.674L146.349 333.622L146.363 333.61L146.424 333.555L187.361 297.048L188.198 296.302L187.361 295.555C184.241 292.772 184.241 288.312 187.361 285.53C190.549 282.688 195.759 282.688 198.946 285.53L199.611 286.123L200.277 285.53L219.004 268.829C220.8 267.227 223.368 266.45 225.938 266.768C227.729 266.992 229.344 267.739 230.576 268.838ZM46.0573 473.628C46.0768 473.652 46.0961 473.679 46.1147 473.708C46.1214 473.718 46.128 473.728 46.1344 473.739C46.11 473.698 46.0839 473.661 46.0573 473.628ZM73.6689 477.876L74.3345 478.469L75.0001 477.876L185.102 379.687L185.938 378.941L185.102 378.195L152.814 349.4L152.149 348.806L151.483 349.4L41.3815 447.589L40.5446 448.335L41.3815 449.081L51.0673 457.719L51.7329 458.313L52.3984 457.719L95.6637 419.135C95.6637 419.135 95.6638 419.135 95.6639 419.135C98.8518 416.294 104.062 416.294 107.248 419.135C110.369 421.918 110.369 426.378 107.249 429.161L63.9832 467.745L63.1463 468.491L63.9832 469.238L73.6689 477.876ZM196.685 368.17L197.351 368.763L198.017 368.17L246.422 325.002L247.05 324.442L246.605 323.727L223.542 286.706L222.914 285.698L222.028 286.488L205.517 301.213L205.515 301.214L205.399 301.317L164.398 337.882L163.561 338.628L164.398 339.375L196.685 368.17ZM253.725 305.402L254.353 306.41L255.24 305.619L452.786 129.446C456.638 126.011 457.986 122.339 457.651 118.909C457.32 115.531 455.376 112.577 453.016 110.472L452.352 111.216L453.015 110.472C450.648 108.361 447.378 106.668 443.696 106.381C439.984 106.092 435.935 107.24 432.083 110.677L240.071 281.915L239.443 282.475L239.888 283.19L253.725 305.402Z" stroke="#FF0000" stroke-width="2"/>
</g>
<path d="M149.887 386.716L143.43 380.957C139.865 377.778 134.082 377.777 130.515 380.957C126.949 384.137 126.948 389.293 130.515 392.475L136.972 398.234C138.756 399.824 141.093 400.62 143.43 400.62C145.767 400.62 148.104 399.824 149.887 398.234C153.454 395.053 153.454 389.897 149.887 386.716Z" fill="#FFE600"/>
<path d="M124.057 398.233C120.491 395.053 114.709 395.053 111.142 398.233C107.575 401.413 107.575 406.57 111.142 409.751L117.599 415.51C119.383 417.1 121.72 417.895 124.057 417.895C126.393 417.895 128.731 417.1 130.514 415.51C134.08 412.329 134.08 407.173 130.514 403.991L124.057 398.233Z" fill="#FFE600"/>
</g>
<g clip-path="url(#clip1)" filter="url(#filter1_d)">
<path d="M446.911 303.082L447.736 302.339L446.911 301.596L230.147 106.384C221.736 98.8085 218.588 90.2435 219.043 82.2111C219.5 74.1496 223.593 66.5074 229.884 60.8424L229.214 60.0994L229.884 60.8424C242.475 49.5022 263.977 45.9608 280.765 61.0797L512.064 269.382L512.571 269.839L513.181 269.534L515.803 268.222C519.546 266.349 524.209 266.95 527.206 269.649L548.731 289.033L549.4 289.636L550.069 289.034C553.79 285.685 559.858 285.685 563.576 289.034C565.419 290.695 566.32 292.846 566.32 294.975C566.32 297.105 565.419 299.256 563.576 300.917L562.751 301.66L563.576 302.403L737.257 458.815C739.028 460.41 740.001 462.55 740.001 464.756C740.001 466.962 739.028 469.102 737.257 470.697L711.281 494.09C711.272 494.098 711.262 494.107 711.254 494.115L685.301 517.487C685.301 517.487 685.301 517.487 685.301 517.487C681.581 520.836 675.512 520.836 671.794 517.487L530.467 390.212L530.408 390.159L530.392 390.145L530.336 390.094L483.27 347.707L482.6 347.105L481.931 347.707C478.212 351.056 472.143 351.056 468.424 347.707C464.767 344.412 464.767 339.118 468.424 335.824L469.249 335.081L468.424 334.338L446.9 314.953C444.807 313.069 443.847 310.438 444.246 307.854C444.528 306.045 445.472 304.379 446.911 303.082ZM716.327 465.499L717.152 464.756L716.327 464.013L589.778 350.046L589.109 349.443L588.44 350.046L551.328 383.467L550.503 384.21L551.328 384.953L677.877 498.92L678.547 499.523L679.216 498.92L690.349 488.895L691.174 488.152L690.349 487.408L640.62 442.624C636.963 439.329 636.963 434.035 640.62 430.741C644.34 427.392 650.408 427.392 654.127 430.741L703.856 475.525L704.525 476.128L705.194 475.525L716.327 465.499ZM574.934 338.164L575.759 337.42L574.934 336.677L519.298 286.573L518.792 286.116L518.182 286.421L470.467 310.294L469.156 310.95L470.245 311.931L489.232 329.031L489.234 329.033L489.358 329.144L536.483 371.585L537.153 372.187L537.822 371.585L574.934 338.164ZM494.095 279.082L495.406 278.426L494.316 277.445L267.258 72.962C262.859 69.0005 258.244 67.6821 254.017 68.0142C249.82 68.3439 246.09 70.2926 243.389 72.7247L244.024 73.4306L243.388 72.7248C240.695 75.1512 238.488 78.5444 238.114 82.41C237.734 86.3272 239.254 90.54 243.653 94.5009L464.35 293.254L464.857 293.711L465.467 293.405L494.095 279.082Z" fill="black" stroke="#FFE600" stroke-width="2"/>
<path d="M599.129 386.551L591.707 393.235C587.61 396.925 587.609 402.911 591.707 406.603C595.806 410.295 602.451 410.296 606.552 406.603L613.974 399.919C616.023 398.073 617.049 395.654 617.049 393.235C617.049 390.816 616.023 388.397 613.974 386.551C609.874 382.859 603.229 382.858 599.129 386.551Z" fill="#01E1FF"/>
<path d="M613.972 413.288C609.874 416.979 609.874 422.965 613.972 426.657C618.071 430.348 624.718 430.348 628.818 426.657L636.24 419.973C638.289 418.127 639.314 415.708 639.314 413.288C639.314 410.869 638.289 408.449 636.24 406.604C632.141 402.913 625.495 402.913 621.395 406.604L613.972 413.288Z" fill="#01E1FF"/>
</g>
<defs>
<filter id="filter0_d" x="16" y="91" width="463.022" height="429.793" filterUnits="userSpaceOnUse" color-interpolation-filters="sRGB">
<feFlood flood-opacity="0" result="BackgroundImageFix"/>
<feColorMatrix in="SourceAlpha" type="matrix" values="0 0 0 0 0 0 0 0 0 0 0 0 0 0 0 0 0 0 127 0"/>
<feOffset dy="20"/>
<feGaussianBlur stdDeviation="2"/>
<feColorMatrix type="matrix" values="0 0 0 0 0 0 0 0 0 0 0 0 0 0 0 0 0 0 0.25 0"/>
<feBlend mode="normal" in2="BackgroundImageFix" result="effect1_dropShadow"/>
<feBlend mode="normal" in="SourceGraphic" in2="effect1_dropShadow" result="shape"/>
</filter>
<filter id="filter1_d" x="168" y="0" width="677.001" height="578.999" filterUnits="userSpaceOnUse" color-interpolation-filters="sRGB">
<feFlood flood-opacity="0" result="BackgroundImageFix"/>
<feColorMatrix in="SourceAlpha" type="matrix" values="0 0 0 0 0 0 0 0 0 0 0 0 0 0 0 0 0 0 127 0"/>
<feOffset dx="50" dy="4"/>
<feGaussianBlur stdDeviation="2"/>
<feColorMatrix type="matrix" values="0 0 0 0 0 0 0 0 0 0 0 0 0 0 0 0 0 0 0.25 0"/>
<feBlend mode="normal" in2="BackgroundImageFix" result="effect1_dropShadow"/>
<feBlend mode="normal" in="SourceGraphic" in2="effect1_dropShadow" result="shape"/>
</filter>
<clipPath id="clip0">
<rect width="495.022" height="445.793" fill="white" transform="translate(0 71)"/>
</clipPath>
<clipPath id="clip1">
<rect width="570.999" height="623.001" fill="white" transform="translate(168 570.999) rotate(-90)"/>
</clipPath>
</defs>
</svg>
