<svg width="617" height="141" viewBox="0 0 617 141" fill="none" xmlns="http://www.w3.org/2000/svg">
<g clip-path="url(#clip0)">
<g clip-path="url(#clip1)" filter="url(#filter0_d)">
<path d="M40.8971 104.732L40.8961 104.731C30.0731 94.3196 24 80.2071 24 65.5003C23.9997 34.8848 49.8109 10.0003 81.7335 10C113.656 10 139.467 34.8842 139.468 65.4997C139.468 96.1151 113.657 121 81.7341 121H81.7329C66.4054 121.02 51.7096 115.161 40.8971 104.732ZM103.461 39.9274L103.46 39.928C97.674 43.1655 95.6728 50.332 99.0497 55.9465L99.0503 55.9475C102.421 61.5371 109.831 63.4121 115.602 60.1916C121.394 56.9591 123.398 49.7862 120.012 44.1722C116.642 38.5823 109.232 36.7069 103.461 39.9274ZM47.9053 70.7824L47.9053 70.7825C42.1129 74.0153 40.1099 81.1885 43.4957 86.8022C46.8668 92.3918 54.276 94.2668 60.0471 91.0463C65.8398 87.8138 67.8431 80.6409 64.4578 75.0269C61.0869 69.4369 53.6766 67.5619 47.9053 70.7824ZM64.4574 55.9738L64.4574 55.9737C67.8431 50.3598 65.8405 43.1868 60.0478 39.954C54.2764 36.7331 46.8668 38.6082 43.4957 44.1977L43.495 44.1988C40.1182 49.8133 42.1194 56.9798 47.905 60.2172L47.906 60.2178C53.677 63.4384 61.0862 61.5633 64.4574 55.9738ZM115.602 70.8217C110.001 67.6955 102.856 69.3696 99.3581 74.5818H99.3133L99.0221 75.0675C95.6505 80.6893 97.6651 87.8574 103.461 91.0855C109.232 94.306 116.641 92.431 120.012 86.8414L119.156 86.3249L120.012 86.8414C123.398 81.2274 121.395 74.0545 115.602 70.8217ZM69.6071 96.3676C69.6071 102.868 75.0736 108.072 81.7341 108.072C88.395 108.072 93.8612 102.868 93.8612 96.3676C93.8612 89.8674 88.395 84.6637 81.7341 84.6637C75.0733 84.6637 69.6071 89.8674 69.6071 96.3676ZM81.7341 56.5044C76.6285 56.5044 72.4225 60.4958 72.4225 65.5C72.4225 70.5041 76.6285 74.4955 81.7341 74.4955C86.8398 74.4955 91.0458 70.5041 91.0458 65.5C91.0458 60.4958 86.8398 56.5044 81.7341 56.5044ZM69.6071 34.6323C69.6071 41.1322 75.0736 46.3362 81.7341 46.3362C88.395 46.3362 93.8612 41.1326 93.8612 34.6323C93.8612 28.1321 88.395 22.9284 81.7341 22.9284C75.0732 22.9284 69.6071 28.1324 69.6071 34.6323Z" fill="black" stroke="#FFE600" stroke-width="2"/>
<path d="M173.247 114.526L173.252 114.531C175.039 116.082 176.525 117.864 177.66 119.807C179.173 122.479 179.318 124.768 178.522 126.158C178.368 126.426 178.113 126.671 177.768 126.844L177.767 126.844L159.301 136.11L159.301 136.11L159.293 136.114C158.896 136.318 158.417 136.403 157.941 136.345L157.941 136.345C156.739 136.198 156.163 135.307 156.28 134.591L156.285 134.558L156.288 134.526C156.346 133.926 156.534 131.014 155.259 128.18C154.613 126.745 153.584 125.313 151.965 124.228C150.346 123.144 148.2 122.45 145.391 122.389L145.376 122.388L145.362 122.388C140.512 122.421 135.668 122.685 130.852 123.178L130.505 123.206C123.294 123.804 115.41 124.457 107.785 124.166C116.25 122.022 124.204 118.522 131.227 113.825C134.453 112.978 137.598 111.909 140.632 110.63L140.638 110.628C150.805 106.262 159.536 107.167 166.081 110.008C168.744 111.168 171.164 112.696 173.247 114.526Z" fill="black" stroke="#FFE600" stroke-width="2"/>
</g>
<path d="M184.545 83V50.808H184.225L174.625 83H167.969L158.433 50.808H158.113V83H150.369V38.968H162.209L171.297 69.688H171.681L180.769 38.968H192.417V83H184.545ZM216.468 83.512C212.287 83.512 209.279 83.0427 207.444 82.104C205.61 81.1227 204.436 79.544 203.924 77.368C203.412 75.1493 203.156 71.5867 203.156 66.68C203.156 61.7307 203.412 58.168 203.924 55.992C204.436 53.7733 205.61 52.1947 207.444 51.256C209.279 50.3173 212.287 49.848 216.468 49.848C220.607 49.848 223.594 50.3173 225.428 51.256C227.263 52.1947 228.436 53.7733 228.948 55.992C229.46 58.2107 229.716 61.7733 229.716 66.68C229.716 71.5867 229.46 75.1493 228.948 77.368C228.436 79.544 227.263 81.1227 225.428 82.104C223.594 83.0427 220.607 83.512 216.468 83.512ZM216.468 77.048C218.346 77.048 219.647 76.8347 220.372 76.408C221.098 75.9813 221.546 75.128 221.716 73.848C221.887 72.568 221.972 70.1787 221.972 66.68C221.972 63.1387 221.887 60.7493 221.716 59.512C221.546 58.232 221.098 57.3787 220.372 56.952C219.69 56.5253 218.388 56.312 216.468 56.312C214.548 56.312 213.226 56.5253 212.5 56.952C211.775 57.3787 211.327 58.232 211.156 59.512C210.986 60.7493 210.9 63.1387 210.9 66.68C210.9 70.1787 210.986 72.568 211.156 73.848C211.327 75.128 211.775 75.9813 212.5 76.408C213.226 76.8347 214.548 77.048 216.468 77.048ZM245.401 83L236.249 50.36H244.185L250.329 75.256H250.905L256.985 50.36H264.793L255.705 83H245.401ZM272.891 42.744V35.448H280.763V42.744H272.891ZM272.955 83V50.36H280.699V83H272.955ZM316.419 69.176H298.563C298.563 71.736 298.691 73.528 298.947 74.552C299.246 75.5333 299.907 76.216 300.931 76.6C301.998 76.9413 303.832 77.112 306.435 77.112C309.208 77.112 312.195 76.9413 315.395 76.6V82.552C314.158 82.8507 312.536 83.0853 310.531 83.256C308.526 83.4267 306.584 83.512 304.707 83.512C300.483 83.512 297.39 82.9787 295.427 81.912C293.507 80.8027 292.248 79.1387 291.651 76.92C291.096 74.6587 290.819 71.2667 290.819 66.744C290.819 62.3493 291.096 59.0213 291.651 56.76C292.248 54.456 293.486 52.728 295.363 51.576C297.24 50.424 300.163 49.848 304.131 49.848C308.014 49.848 310.808 50.4027 312.515 51.512C314.264 52.6213 315.352 54.2853 315.779 56.504C316.206 58.68 316.419 62.0933 316.419 66.744V69.176ZM304.003 56.184C302.339 56.184 301.144 56.376 300.419 56.76C299.694 57.144 299.203 57.848 298.947 58.872C298.734 59.896 298.606 61.5813 298.563 63.928H309.123C309.123 61.5813 308.974 59.8747 308.675 58.808C308.419 57.7413 307.928 57.0373 307.203 56.696C306.52 56.3547 305.454 56.184 304.003 56.184ZM344.258 38.968H357.506C362.925 38.968 366.765 39.5867 369.026 40.824C371.33 42.0187 372.759 44.024 373.314 46.84C373.911 49.6133 374.21 54.328 374.21 60.984C374.21 67.64 373.911 72.376 373.314 75.192C372.759 77.9653 371.33 79.9707 369.026 81.208C366.765 82.4027 362.925 83 357.506 83H344.258V38.968ZM357.122 75.96C360.237 75.96 362.327 75.7253 363.394 75.256C364.503 74.7867 365.207 73.6133 365.506 71.736C365.847 69.8587 366.018 66.2747 366.018 60.984C366.018 55.6933 365.847 52.1093 365.506 50.232C365.207 48.3547 364.503 47.1813 363.394 46.712C362.327 46.2427 360.237 46.008 357.122 46.008H352.386V75.96H357.122ZM391.922 83.512C388.935 83.512 386.738 82.744 385.33 81.208C383.922 79.672 383.218 77.1973 383.218 73.784C383.218 71.224 383.495 69.24 384.05 67.832C384.605 66.3813 385.543 65.336 386.866 64.696C388.231 64.0133 390.109 63.672 392.498 63.672C394.418 63.672 397.255 63.7573 401.01 63.928V62.52C401.01 60.5147 400.818 59.1067 400.434 58.296C400.093 57.4427 399.431 56.9093 398.45 56.696C397.511 56.44 395.869 56.312 393.522 56.312C392.413 56.312 390.983 56.376 389.234 56.504C387.485 56.5893 386.077 56.696 385.01 56.824V50.808C388.722 50.168 392.37 49.848 395.954 49.848C399.581 49.848 402.29 50.2747 404.082 51.128C405.917 51.9813 407.133 53.3253 407.73 55.16C408.37 56.952 408.69 59.5333 408.69 62.904V83H401.522L401.266 79.032H400.818C399.495 82.0187 396.53 83.512 391.922 83.512ZM395.442 77.048C396.637 77.048 397.575 76.9413 398.258 76.728C398.983 76.472 399.581 76.0027 400.05 75.32C400.69 74.3387 401.01 72.632 401.01 70.2V68.92H394.61C393.501 68.92 392.669 69.0267 392.114 69.24C391.602 69.4107 391.239 69.7947 391.026 70.392C390.813 70.9467 390.706 71.8427 390.706 73.08C390.706 74.232 390.813 75.0853 391.026 75.64C391.282 76.1947 391.73 76.5787 392.37 76.792C393.01 76.9627 394.034 77.048 395.442 77.048ZM422.078 83V56.824H416.766V50.36H422.078V40.888H429.758V50.36H436.158V56.824H429.758V83H422.078ZM451.072 83.512C448.085 83.512 445.888 82.744 444.48 81.208C443.072 79.672 442.368 77.1973 442.368 73.784C442.368 71.224 442.645 69.24 443.2 67.832C443.755 66.3813 444.693 65.336 446.016 64.696C447.381 64.0133 449.259 63.672 451.648 63.672C453.568 63.672 456.405 63.7573 460.16 63.928V62.52C460.16 60.5147 459.968 59.1067 459.584 58.296C459.243 57.4427 458.581 56.9093 457.6 56.696C456.661 56.44 455.019 56.312 452.672 56.312C451.563 56.312 450.133 56.376 448.384 56.504C446.635 56.5893 445.227 56.696 444.16 56.824V50.808C447.872 50.168 451.52 49.848 455.104 49.848C458.731 49.848 461.44 50.2747 463.232 51.128C465.067 51.9813 466.283 53.3253 466.88 55.16C467.52 56.952 467.84 59.5333 467.84 62.904V83H460.672L460.416 79.032H459.968C458.645 82.0187 455.68 83.512 451.072 83.512ZM454.592 77.048C455.787 77.048 456.725 76.9413 457.408 76.728C458.133 76.472 458.731 76.0027 459.2 75.32C459.84 74.3387 460.16 72.632 460.16 70.2V68.92H453.76C452.651 68.92 451.819 69.0267 451.264 69.24C450.752 69.4107 450.389 69.7947 450.176 70.392C449.963 70.9467 449.856 71.8427 449.856 73.08C449.856 74.232 449.963 75.0853 450.176 75.64C450.432 76.1947 450.88 76.5787 451.52 76.792C452.16 76.9627 453.184 77.048 454.592 77.048ZM495.237 83.512C493.317 83.512 491.61 83.192 490.117 82.552C488.666 81.8693 487.578 80.6747 486.853 78.968H486.405L486.149 83H478.981V35.448H486.661V53.944H487.109C487.877 52.4507 488.943 51.4053 490.309 50.808C491.717 50.168 493.423 49.848 495.429 49.848C497.903 49.848 499.823 50.36 501.189 51.384C502.597 52.408 503.599 54.136 504.197 56.568C504.837 58.9573 505.157 62.328 505.157 66.68C505.157 71.0747 504.837 74.488 504.197 76.92C503.557 79.3093 502.533 81.016 501.125 82.04C499.717 83.0213 497.754 83.512 495.237 83.512ZM492.037 76.664C493.786 76.664 495.002 76.472 495.685 76.088C496.41 75.6613 496.879 74.808 497.093 73.528C497.349 72.2053 497.477 69.9227 497.477 66.68C497.477 63.48 497.349 61.24 497.093 59.96C496.879 58.6373 496.41 57.784 495.685 57.4C495.002 56.9733 493.786 56.76 492.037 56.76C490.799 56.76 489.839 56.9093 489.157 57.208C488.474 57.5067 487.962 58.04 487.621 58.808C487.237 59.5333 486.981 60.5147 486.853 61.752C486.725 62.9893 486.661 64.632 486.661 66.68C486.661 68.728 486.725 70.3493 486.853 71.544C486.981 72.696 487.215 73.6347 487.557 74.36C487.898 75.2133 488.41 75.8107 489.093 76.152C489.775 76.4933 490.757 76.664 492.037 76.664ZM522.41 83.512C519.423 83.512 517.226 82.744 515.818 81.208C514.41 79.672 513.706 77.1973 513.706 73.784C513.706 71.224 513.983 69.24 514.538 67.832C515.092 66.3813 516.031 65.336 517.354 64.696C518.719 64.0133 520.596 63.672 522.986 63.672C524.906 63.672 527.743 63.7573 531.498 63.928V62.52C531.498 60.5147 531.306 59.1067 530.922 58.296C530.58 57.4427 529.919 56.9093 528.938 56.696C527.999 56.44 526.356 56.312 524.01 56.312C522.9 56.312 521.471 56.376 519.722 56.504C517.972 56.5893 516.564 56.696 515.498 56.824V50.808C519.21 50.168 522.858 49.848 526.442 49.848C530.068 49.848 532.778 50.2747 534.57 51.128C536.404 51.9813 537.62 53.3253 538.218 55.16C538.858 56.952 539.178 59.5333 539.178 62.904V83H532.01L531.754 79.032H531.306C529.983 82.0187 527.018 83.512 522.41 83.512ZM525.93 77.048C527.124 77.048 528.063 76.9413 528.746 76.728C529.471 76.472 530.068 76.0027 530.538 75.32C531.178 74.3387 531.498 72.632 531.498 70.2V68.92H525.098C523.988 68.92 523.156 69.0267 522.602 69.24C522.09 69.4107 521.727 69.7947 521.514 70.392C521.3 70.9467 521.194 71.8427 521.194 73.08C521.194 74.232 521.3 75.0853 521.514 75.64C521.77 76.1947 522.218 76.5787 522.858 76.792C523.498 76.9627 524.522 77.048 525.93 77.048ZM560.686 83.512C558.979 83.512 557.102 83.4267 555.054 83.256C553.006 83.0853 551.214 82.872 549.678 82.616V76.536C552.835 76.92 555.95 77.112 559.022 77.112C560.643 77.112 561.838 77.0053 562.606 76.792C563.417 76.5787 563.929 76.2373 564.142 75.768C564.398 75.2987 564.526 74.5733 564.526 73.592C564.526 72.568 564.441 71.8427 564.27 71.416C564.142 70.9893 563.886 70.6907 563.502 70.52C563.118 70.3493 562.414 70.2 561.39 70.072L554.798 69.176C552.451 68.8773 550.851 68.0027 549.998 66.552C549.187 65.1013 548.782 62.7973 548.782 59.64C548.782 56.9947 549.251 54.968 550.19 53.56C551.171 52.152 552.515 51.192 554.222 50.68C555.929 50.1253 558.083 49.848 560.686 49.848C562.307 49.848 564.014 49.9547 565.806 50.168C567.641 50.3387 569.134 50.5733 570.286 50.872V56.888C567.427 56.4613 564.547 56.248 561.646 56.248C560.195 56.248 559.086 56.3333 558.318 56.504C557.593 56.632 557.059 56.952 556.718 57.464C556.419 57.9333 556.27 58.6587 556.27 59.64C556.27 60.5787 556.313 61.2613 556.398 61.688C556.526 62.072 556.761 62.3493 557.102 62.52C557.486 62.6907 558.126 62.84 559.022 62.968L565.678 63.8C567.129 64.0133 568.281 64.376 569.134 64.888C570.03 65.4 570.713 66.3173 571.182 67.64C571.694 68.92 571.95 70.7973 571.95 73.272C571.95 76.0453 571.502 78.1787 570.606 79.672C569.753 81.1653 568.515 82.1893 566.894 82.744C565.315 83.256 563.246 83.512 560.686 83.512ZM606.156 69.176H588.3C588.3 71.736 588.428 73.528 588.684 74.552C588.983 75.5333 589.644 76.216 590.668 76.6C591.735 76.9413 593.57 77.112 596.172 77.112C598.946 77.112 601.932 76.9413 605.132 76.6V82.552C603.895 82.8507 602.274 83.0853 600.268 83.256C598.263 83.4267 596.322 83.512 594.444 83.512C590.22 83.512 587.127 82.9787 585.164 81.912C583.244 80.8027 581.986 79.1387 581.388 76.92C580.834 74.6587 580.556 71.2667 580.556 66.744C580.556 62.3493 580.834 59.0213 581.388 56.76C581.986 54.456 583.223 52.728 585.1 51.576C586.978 50.424 589.9 49.848 593.868 49.848C597.751 49.848 600.546 50.4027 602.252 51.512C604.002 52.6213 605.09 54.2853 605.516 56.504C605.943 58.68 606.156 62.0933 606.156 66.744V69.176ZM593.74 56.184C592.076 56.184 590.882 56.376 590.156 56.76C589.431 57.144 588.94 57.848 588.684 58.872C588.471 59.896 588.343 61.5813 588.3 63.928H598.86C598.86 61.5813 598.711 59.8747 598.412 58.808C598.156 57.7413 597.666 57.0373 596.94 56.696C596.258 56.3547 595.191 56.184 593.74 56.184Z" fill="black"/>
<path d="M184.545 83H183.545V84H184.545V83ZM184.545 50.808H185.545V49.808H184.545V50.808ZM184.225 50.808V49.808H183.48L183.267 50.5222L184.225 50.808ZM174.625 83V84H175.37L175.583 83.2858L174.625 83ZM167.969 83L167.01 83.284L167.222 84H167.969V83ZM158.433 50.808L159.392 50.524L159.18 49.808H158.433V50.808ZM158.113 50.808V49.808H157.113V50.808H158.113ZM158.113 83V84H159.113V83H158.113ZM150.369 83H149.369V84H150.369V83ZM150.369 38.968V37.968H149.369V38.968H150.369ZM162.209 38.968L163.168 38.6843L162.956 37.968H162.209V38.968ZM171.297 69.688L170.338 69.9717L170.55 70.688H171.297V69.688ZM171.681 69.688V70.688H172.428L172.64 69.9717L171.681 69.688ZM180.769 38.968V37.968H180.022L179.81 38.6843L180.769 38.968ZM192.417 38.968H193.417V37.968H192.417V38.968ZM192.417 83V84H193.417V83H192.417ZM185.545 83V50.808H183.545V83H185.545ZM184.545 49.808H184.225V51.808H184.545V49.808ZM183.267 50.5222L173.667 82.7142L175.583 83.2858L185.183 51.0938L183.267 50.5222ZM174.625 82H167.969V84H174.625V82ZM168.928 82.716L159.392 50.524L157.474 51.092L167.01 83.284L168.928 82.716ZM158.433 49.808H158.113V51.808H158.433V49.808ZM157.113 50.808V83H159.113V50.808H157.113ZM158.113 82H150.369V84H158.113V82ZM151.369 83V38.968H149.369V83H151.369ZM150.369 39.968H162.209V37.968H150.369V39.968ZM161.25 39.2517L170.338 69.9717L172.256 69.4043L163.168 38.6843L161.25 39.2517ZM171.297 70.688H171.681V68.688H171.297V70.688ZM172.64 69.9717L181.728 39.2517L179.81 38.6843L170.722 69.4043L172.64 69.9717ZM180.769 39.968H192.417V37.968H180.769V39.968ZM191.417 38.968V83H193.417V38.968H191.417ZM192.417 82H184.545V84H192.417V82ZM207.444 82.104L206.973 82.9858L206.981 82.9901L206.989 82.9942L207.444 82.104ZM203.924 77.368L202.95 77.5929L202.951 77.597L203.924 77.368ZM203.924 55.992L204.898 56.221L204.899 56.2169L203.924 55.992ZM207.444 51.256L207.9 52.1462L207.9 52.1462L207.444 51.256ZM225.428 51.256L225.884 50.3658L225.884 50.3658L225.428 51.256ZM228.948 55.992L229.923 55.7671L229.923 55.7671L228.948 55.992ZM228.948 77.368L229.922 77.597L229.923 77.5929L228.948 77.368ZM225.428 82.104L225.884 82.9942L225.892 82.9901L225.9 82.9858L225.428 82.104ZM220.372 76.408L220.88 77.2699L220.88 77.2699L220.372 76.408ZM221.716 73.848L222.708 73.9802L222.708 73.9802L221.716 73.848ZM221.716 59.512L220.725 59.6442L220.726 59.6486L221.716 59.512ZM220.372 56.952L219.842 57.8L219.854 57.8071L219.865 57.8139L220.372 56.952ZM212.5 56.952L213.008 57.8139L213.008 57.8139L212.5 56.952ZM211.156 59.512L212.147 59.6486L212.148 59.6442L211.156 59.512ZM211.156 73.848L210.165 73.9802L210.165 73.9802L211.156 73.848ZM212.5 76.408L211.993 77.2699L211.993 77.2699L212.5 76.408ZM216.468 82.512C212.315 82.512 209.511 82.038 207.9 81.2138L206.989 82.9942C209.047 84.0474 212.26 84.512 216.468 84.512V82.512ZM207.916 81.2222C206.355 80.3873 205.35 79.0589 204.898 77.139L202.951 77.597C203.523 80.0291 204.864 81.858 206.973 82.9858L207.916 81.2222ZM204.899 77.1431C204.414 75.0427 204.156 71.5771 204.156 66.68H202.156C202.156 71.5962 202.411 75.2559 202.95 77.5929L204.899 77.1431ZM204.156 66.68C204.156 61.7379 204.415 58.2755 204.898 56.221L202.951 55.763C202.41 58.0604 202.156 61.7234 202.156 66.68H204.156ZM204.899 56.2169C205.352 54.2516 206.358 52.9354 207.9 52.1462L206.989 50.3658C204.862 51.4539 203.521 53.295 202.95 55.7671L204.899 56.2169ZM207.9 52.1462C209.511 51.322 212.315 50.848 216.468 50.848V48.848C212.26 48.848 209.047 49.3126 206.989 50.3658L207.9 52.1462ZM216.468 50.848C220.578 50.848 223.361 51.3216 224.973 52.1462L225.884 50.3658C223.826 49.3131 220.637 48.848 216.468 48.848V50.848ZM224.973 52.1462C226.515 52.9354 227.521 54.2516 227.974 56.2169L229.923 55.7671C229.352 53.295 228.011 51.4539 225.884 50.3658L224.973 52.1462ZM227.974 56.2169C228.459 58.3173 228.716 61.7829 228.716 66.68H230.716C230.716 61.7638 230.462 58.1041 229.923 55.7671L227.974 56.2169ZM228.716 66.68C228.716 71.5771 228.459 75.0427 227.974 77.1431L229.923 77.5929C230.462 75.2559 230.716 71.5962 230.716 66.68H228.716ZM227.975 77.139C227.523 79.0589 226.518 80.3873 224.957 81.2222L225.9 82.9858C228.009 81.858 229.35 80.0291 229.922 77.597L227.975 77.139ZM224.973 81.2138C223.361 82.0384 220.578 82.512 216.468 82.512V84.512C220.637 84.512 223.826 84.0469 225.884 82.9942L224.973 81.2138ZM216.468 78.048C218.354 78.048 219.901 77.8456 220.88 77.2699L219.865 75.5461C219.393 75.8238 218.337 76.048 216.468 76.048V78.048ZM220.88 77.2699C221.987 76.6186 222.519 75.3989 222.708 73.9802L220.725 73.7158C220.573 74.8571 220.209 75.344 219.865 75.5461L220.88 77.2699ZM222.708 73.9802C222.888 72.6252 222.972 70.1726 222.972 66.68H220.972C220.972 70.1847 220.886 72.5108 220.725 73.7158L222.708 73.9802ZM222.972 66.68C222.972 63.1473 222.889 60.691 222.707 59.3754L220.726 59.6486C220.886 60.8076 220.972 63.13 220.972 66.68H222.972ZM222.708 59.3798C222.519 57.9611 221.987 56.7414 220.88 56.0901L219.865 57.8139C220.209 58.016 220.573 58.5029 220.725 59.6442L222.708 59.3798ZM220.902 56.104C220.4 55.7897 219.755 55.6013 219.046 55.4852C218.324 55.3668 217.461 55.312 216.468 55.312V57.312C217.396 57.312 218.144 57.3639 218.723 57.4588C219.316 57.556 219.663 57.6876 219.842 57.8L220.902 56.104ZM216.468 55.312C215.476 55.312 214.608 55.3668 213.877 55.4848C213.157 55.6009 212.508 55.7876 211.993 56.0901L213.008 57.8139C213.219 57.6898 213.593 57.5564 214.196 57.4592C214.787 57.3638 215.541 57.312 216.468 57.312V55.312ZM211.993 56.0901C210.886 56.7414 210.354 57.9611 210.165 59.3798L212.148 59.6442C212.3 58.5029 212.664 58.016 213.008 57.8139L211.993 56.0901ZM210.166 59.3754C209.984 60.691 209.9 63.1473 209.9 66.68H211.9C211.9 63.13 211.987 60.8076 212.147 59.6486L210.166 59.3754ZM209.9 66.68C209.9 70.1726 209.985 72.6252 210.165 73.9802L212.148 73.7158C211.987 72.5108 211.9 70.1847 211.9 66.68H209.9ZM210.165 73.9802C210.354 75.3989 210.886 76.6186 211.993 77.2699L213.008 75.5461C212.664 75.344 212.3 74.8571 212.148 73.7158L210.165 73.9802ZM211.993 77.2699C212.508 77.5724 213.157 77.7591 213.877 77.8752C214.608 77.9932 215.476 78.048 216.468 78.048V76.048C215.541 76.048 214.787 75.9962 214.196 75.9008C213.593 75.8036 213.219 75.6702 213.008 75.5461L211.993 77.2699ZM245.401 83L244.438 83.27L244.643 84H245.401V83ZM236.249 50.36V49.36H234.93L235.286 50.63L236.249 50.36ZM244.185 50.36L245.156 50.1204L244.968 49.36H244.185V50.36ZM250.329 75.256L249.358 75.4956L249.546 76.256H250.329V75.256ZM250.905 75.256V76.256H251.69L251.876 75.4932L250.905 75.256ZM256.985 50.36V49.36H256.2L256.014 50.1228L256.985 50.36ZM264.793 50.36L265.756 50.6282L266.109 49.36H264.793V50.36ZM255.705 83V84H256.465L256.668 83.2682L255.705 83ZM246.364 82.73L237.212 50.09L235.286 50.63L244.438 83.27L246.364 82.73ZM236.249 51.36H244.185V49.36H236.249V51.36ZM243.214 50.5996L249.358 75.4956L251.3 75.0164L245.156 50.1204L243.214 50.5996ZM250.329 76.256H250.905V74.256H250.329V76.256ZM251.876 75.4932L257.956 50.5972L256.014 50.1228L249.934 75.0188L251.876 75.4932ZM256.985 51.36H264.793V49.36H256.985V51.36ZM263.83 50.0918L254.742 82.7318L256.668 83.2682L265.756 50.6282L263.83 50.0918ZM255.705 82H245.401V84H255.705V82ZM272.891 42.744H271.891V43.744H272.891V42.744ZM272.891 35.448V34.448H271.891V35.448H272.891ZM280.763 35.448H281.763V34.448H280.763V35.448ZM280.763 42.744V43.744H281.763V42.744H280.763ZM272.955 83H271.955V84H272.955V83ZM272.955 50.36V49.36H271.955V50.36H272.955ZM280.699 50.36H281.699V49.36H280.699V50.36ZM280.699 83V84H281.699V83H280.699ZM273.891 42.744V35.448H271.891V42.744H273.891ZM272.891 36.448H280.763V34.448H272.891V36.448ZM279.763 35.448V42.744H281.763V35.448H279.763ZM280.763 41.744H272.891V43.744H280.763V41.744ZM273.955 83V50.36H271.955V83H273.955ZM272.955 51.36H280.699V49.36H272.955V51.36ZM279.699 50.36V83H281.699V50.36H279.699ZM280.699 82H272.955V84H280.699V82ZM316.419 69.176V70.176H317.419V69.176H316.419ZM298.563 69.176V68.176H297.563V69.176H298.563ZM298.947 74.552L297.977 74.7945L297.983 74.819L297.99 74.8432L298.947 74.552ZM300.931 76.6L300.58 77.5363L300.603 77.5449L300.626 77.5524L300.931 76.6ZM315.395 76.6H316.395V75.4877L315.289 75.6056L315.395 76.6ZM315.395 82.552L315.63 83.5241L316.395 83.3393V82.552H315.395ZM310.531 83.256L310.446 82.2596L310.446 82.2596L310.531 83.256ZM295.427 81.912L294.927 82.7779L294.938 82.7844L294.949 82.7906L295.427 81.912ZM291.651 76.92L290.68 77.1582L290.682 77.1691L290.685 77.18L291.651 76.92ZM291.651 56.76L290.683 56.509L290.68 56.5218L291.651 56.76ZM295.363 51.576L294.84 50.7237L294.84 50.7237L295.363 51.576ZM312.515 51.512L311.97 52.3505L311.979 52.3565L312.515 51.512ZM315.779 56.504L314.797 56.6928L314.798 56.6964L315.779 56.504ZM298.947 58.872L297.977 58.6295L297.972 58.6487L297.968 58.668L298.947 58.872ZM298.563 63.928L297.563 63.9098L297.545 64.928H298.563V63.928ZM309.123 63.928V64.928H310.123V63.928H309.123ZM308.675 58.808L307.703 59.0414L307.707 59.0596L307.712 59.0776L308.675 58.808ZM307.203 56.696L306.756 57.5904L306.766 57.5957L306.777 57.6008L307.203 56.696ZM316.419 68.176H298.563V70.176H316.419V68.176ZM297.563 69.176C297.563 71.7347 297.688 73.6384 297.977 74.7945L299.917 74.3095C299.694 73.4176 299.563 71.7373 299.563 69.176H297.563ZM297.99 74.8432C298.386 76.1441 299.287 77.0515 300.58 77.5363L301.282 75.6637C300.527 75.3805 300.105 74.9226 299.904 74.2608L297.99 74.8432ZM300.626 77.5524C301.855 77.9457 303.829 78.112 306.435 78.112V76.112C303.835 76.112 302.14 75.9369 301.236 75.6476L300.626 77.5524ZM306.435 78.112C309.249 78.112 312.271 77.9389 315.501 77.5944L315.289 75.6056C312.119 75.9438 309.168 76.112 306.435 76.112V78.112ZM314.395 76.6V82.552H316.395V76.6H314.395ZM315.16 81.5799C313.992 81.8619 312.426 82.0911 310.446 82.2596L310.616 84.2524C312.646 84.0796 314.323 83.8394 315.63 83.5241L315.16 81.5799ZM310.446 82.2596C308.467 82.428 306.554 82.512 304.707 82.512V84.512C306.615 84.512 308.584 84.4253 310.616 84.2524L310.446 82.2596ZM304.707 82.512C300.526 82.512 297.641 81.977 295.905 81.0334L294.949 82.7906C297.139 83.9804 300.44 84.512 304.707 84.512V82.512ZM295.927 81.0461C294.246 80.0745 293.148 78.6334 292.617 76.66L290.685 77.18C291.349 79.6439 292.768 81.5309 294.927 82.7779L295.927 81.0461ZM292.622 76.6818C292.097 74.5408 291.819 71.2467 291.819 66.744H289.819C289.819 71.2867 290.096 74.7766 290.68 77.1582L292.622 76.6818ZM291.819 66.744C291.819 62.3721 292.097 59.1406 292.622 56.9982L290.68 56.5218C290.096 58.9021 289.819 62.3266 289.819 66.744H291.819ZM292.619 57.011C293.157 54.9353 294.248 53.4335 295.886 52.4283L294.84 50.7237C292.723 52.0225 291.34 53.9767 290.683 56.509L292.619 57.011ZM295.886 52.4283C297.524 51.4229 300.22 50.848 304.131 50.848V48.848C300.106 48.848 296.956 49.4251 294.84 50.7237L295.886 52.4283ZM304.131 50.848C307.968 50.848 310.516 51.4055 311.97 52.3504L313.06 50.6736C311.1 49.3998 308.059 48.848 304.131 48.848V50.848ZM311.979 52.3565C313.473 53.3039 314.417 54.7176 314.797 56.6928L316.761 56.3152C316.288 53.853 315.055 51.9387 313.051 50.6675L311.979 52.3565ZM314.798 56.6964C315.205 58.7718 315.419 62.1037 315.419 66.744H317.419C317.419 62.083 317.207 58.5882 316.76 56.3116L314.798 56.6964ZM315.419 66.744V69.176H317.419V66.744H315.419ZM304.003 55.184C302.311 55.184 300.905 55.371 299.951 55.8762L300.887 57.6438C301.383 57.3809 302.367 57.184 304.003 57.184V55.184ZM299.951 55.8762C298.908 56.4287 298.281 57.414 297.977 58.6295L299.917 59.1145C300.125 58.282 300.48 57.8593 300.887 57.6438L299.951 55.8762ZM297.968 58.668C297.734 59.7913 297.606 61.5581 297.563 63.9098L299.563 63.9462C299.605 61.6045 299.733 60.0007 299.926 59.076L297.968 58.668ZM298.563 64.928H309.123V62.928H298.563V64.928ZM310.123 63.928C310.123 61.5683 309.976 59.7451 309.638 58.5384L307.712 59.0776C307.971 60.0042 308.123 61.5944 308.123 63.928H310.123ZM309.647 58.5746C309.348 57.3282 308.721 56.305 307.629 55.7912L306.777 57.6008C307.136 57.7696 307.49 58.1544 307.703 59.0414L309.647 58.5746ZM307.65 55.8016C306.753 55.353 305.493 55.184 304.003 55.184V57.184C305.414 57.184 306.288 57.3564 306.756 57.5904L307.65 55.8016ZM344.258 38.968V37.968H343.258V38.968H344.258ZM369.026 40.824L368.546 41.7013L368.556 41.7066L368.566 41.7118L369.026 40.824ZM373.314 46.84L372.333 47.0333L372.335 47.0419L372.336 47.0506L373.314 46.84ZM373.314 75.192L372.336 74.9845L372.333 74.9959L373.314 75.192ZM369.026 81.208L369.493 82.0922L369.499 82.089L369.026 81.208ZM344.258 83H343.258V84H344.258V83ZM363.394 75.256L363.004 74.335L362.998 74.3378L362.991 74.3407L363.394 75.256ZM365.506 71.736L364.522 71.5571L364.52 71.568L364.518 71.5789L365.506 71.736ZM365.506 50.232L364.518 50.3891L364.52 50.4L364.522 50.4109L365.506 50.232ZM363.394 46.712L362.991 47.6273L362.998 47.6302L363.004 47.633L363.394 46.712ZM352.386 46.008V45.008H351.386V46.008H352.386ZM352.386 75.96H351.386V76.96H352.386V75.96ZM344.258 39.968H357.506V37.968H344.258V39.968ZM357.506 39.968C362.903 39.968 366.522 40.5936 368.546 41.7013L369.506 39.9467C367.008 38.5797 362.946 37.968 357.506 37.968V39.968ZM368.566 41.7118C370.568 42.7502 371.83 44.4799 372.333 47.0333L374.295 46.6467C373.689 43.5681 372.092 41.2871 369.486 39.9362L368.566 41.7118ZM372.336 47.0506C372.909 49.7099 373.21 54.3299 373.21 60.984H375.21C375.21 54.3261 374.913 49.5168 374.292 46.6294L372.336 47.0506ZM373.21 60.984C373.21 67.6369 372.909 72.2804 372.336 74.9845L374.292 75.3995C374.913 72.4716 375.21 67.6431 375.21 60.984H373.21ZM372.333 74.9959C371.832 77.5038 370.571 79.2434 368.553 80.327L369.499 82.089C372.089 80.6979 373.687 78.4268 374.295 75.3881L372.333 74.9959ZM368.559 80.3238C366.53 81.3958 362.905 82 357.506 82V84C362.944 84 366.999 83.4096 369.493 82.0922L368.559 80.3238ZM357.506 82H344.258V84H357.506V82ZM345.258 83V38.968H343.258V83H345.258ZM357.122 76.96C358.701 76.96 360.042 76.9007 361.138 76.7778C362.216 76.6567 363.125 76.4671 363.797 76.1713L362.991 74.3407C362.597 74.5143 361.926 74.6767 360.914 74.7902C359.919 74.902 358.658 74.96 357.122 74.96V76.96ZM363.784 76.177C365.365 75.5081 366.174 73.9046 366.494 71.8931L364.518 71.5789C364.241 73.3221 363.642 74.0653 363.004 74.335L363.784 76.177ZM366.49 71.9149C366.85 69.9359 367.018 66.2647 367.018 60.984H365.018C365.018 66.2847 364.845 69.7815 364.522 71.5571L366.49 71.9149ZM367.018 60.984C367.018 55.7033 366.85 52.0321 366.49 50.0531L364.522 50.4109C364.845 52.1865 365.018 55.6833 365.018 60.984H367.018ZM366.494 50.0749C366.174 48.0634 365.365 46.4599 363.784 45.791L363.004 47.633C363.642 47.9027 364.241 48.6459 364.518 50.3891L366.494 50.0749ZM363.797 45.7967C363.125 45.5009 362.216 45.3113 361.138 45.1902C360.042 45.0673 358.701 45.008 357.122 45.008V47.008C358.658 47.008 359.919 47.066 360.914 47.1778C361.926 47.2913 362.597 47.4537 362.991 47.6273L363.797 45.7967ZM357.122 45.008H352.386V47.008H357.122V45.008ZM351.386 46.008V75.96H353.386V46.008H351.386ZM352.386 76.96H357.122V74.96H352.386V76.96ZM385.33 81.208L384.593 81.8837L384.593 81.8837L385.33 81.208ZM384.05 67.832L384.98 68.1985L384.984 68.1891L384.05 67.832ZM386.866 64.696L387.302 65.5962L387.313 65.5904L386.866 64.696ZM401.01 63.928L400.965 64.927L402.01 64.9745V63.928H401.01ZM400.434 58.296L399.506 58.6674L399.517 58.6961L399.53 58.7241L400.434 58.296ZM398.45 56.696L398.187 57.6608L398.212 57.6676L398.238 57.6732L398.45 56.696ZM389.234 56.504L389.283 57.5028L389.295 57.5022L389.307 57.5013L389.234 56.504ZM385.01 56.824H384.01V57.9512L385.129 57.8169L385.01 56.824ZM385.01 50.808L384.84 49.8225L384.01 49.9657V50.808H385.01ZM404.082 51.128L403.652 52.0309L403.66 52.0347L404.082 51.128ZM407.73 55.16L406.779 55.4696L406.783 55.483L406.788 55.4963L407.73 55.16ZM408.69 83V84H409.69V83H408.69ZM401.522 83L400.524 83.0644L400.584 84H401.522V83ZM401.266 79.032L402.264 78.9676L402.204 78.032H401.266V79.032ZM400.818 79.032V78.032H400.167L399.904 78.6271L400.818 79.032ZM398.258 76.728L398.556 77.6825L398.574 77.677L398.591 77.671L398.258 76.728ZM400.05 75.32L400.874 75.8865L400.881 75.8765L400.888 75.8663L400.05 75.32ZM401.01 68.92H402.01V67.92H401.01V68.92ZM392.114 69.24L392.43 70.1887L392.452 70.1815L392.473 70.1733L392.114 69.24ZM391.026 70.392L391.959 70.751L391.964 70.7397L391.968 70.7283L391.026 70.392ZM391.026 75.64L390.093 75.999L390.104 76.0294L390.118 76.0591L391.026 75.64ZM392.37 76.792L392.054 77.7407L392.083 77.7504L392.112 77.7582L392.37 76.792ZM391.922 82.512C389.092 82.512 387.216 81.7852 386.067 80.5323L384.593 81.8837C386.26 83.7028 388.779 84.512 391.922 84.512V82.512ZM386.067 80.5323C384.908 79.2676 384.218 77.0973 384.218 73.784H382.218C382.218 77.2973 382.936 80.0764 384.593 81.8837L386.067 80.5323ZM384.218 73.784C384.218 71.2748 384.493 69.4362 384.98 68.1985L383.12 67.4655C382.498 69.0438 382.218 71.1732 382.218 73.784H384.218ZM384.984 68.1891C385.453 66.9614 386.222 66.1185 387.302 65.5962L386.43 63.7958C384.865 64.5535 383.756 65.8012 383.116 67.4749L384.984 68.1891ZM387.313 65.5904C388.483 65.0055 390.185 64.672 392.498 64.672V62.672C390.032 62.672 387.98 63.0212 386.419 63.8016L387.313 65.5904ZM392.498 64.672C394.395 64.672 397.214 64.7565 400.965 64.927L401.055 62.929C397.297 62.7582 394.441 62.672 392.498 62.672V64.672ZM402.01 63.928V62.52H400.01V63.928H402.01ZM402.01 62.52C402.01 60.5058 401.826 58.8979 401.338 57.8679L399.53 58.7241C399.81 59.3154 400.01 60.5235 400.01 62.52H402.01ZM401.362 57.9246C400.885 56.7308 399.933 55.995 398.662 55.7188L398.238 57.6732C398.93 57.8237 399.3 58.1546 399.506 58.6674L401.362 57.9246ZM398.713 55.7312C397.632 55.4363 395.868 55.312 393.522 55.312V57.312C395.87 57.312 397.391 57.4437 398.187 57.6608L398.713 55.7312ZM393.522 55.312C392.379 55.312 390.922 55.3778 389.161 55.5067L389.307 57.5013C391.044 57.3742 392.447 57.312 393.522 57.312V55.312ZM389.185 55.5052C387.425 55.5911 385.991 55.6991 384.891 55.8311L385.129 57.8169C386.163 57.6929 387.544 57.5876 389.283 57.5028L389.185 55.5052ZM386.01 56.824V50.808H384.01V56.824H386.01ZM385.18 51.7935C388.839 51.1626 392.43 50.848 395.954 50.848V48.848C392.31 48.848 388.605 49.1734 384.84 49.8225L385.18 51.7935ZM395.954 50.848C399.535 50.848 402.064 51.2746 403.652 52.0309L404.512 50.2251C402.516 49.2748 399.626 48.848 395.954 48.848V50.848ZM403.66 52.0347C405.257 52.7775 406.272 53.9129 406.779 55.4696L408.681 54.8504C407.993 52.7378 406.576 51.1852 404.504 50.2213L403.66 52.0347ZM406.788 55.4963C407.371 57.1276 407.69 59.5737 407.69 62.904H409.69C409.69 59.4929 409.369 56.7764 408.672 54.8237L406.788 55.4963ZM407.69 62.904V83H409.69V62.904H407.69ZM408.69 82H401.522V84H408.69V82ZM402.52 82.9356L402.264 78.9676L400.268 79.0964L400.524 83.0644L402.52 82.9356ZM401.266 78.032H400.818V80.032H401.266V78.032ZM399.904 78.6271C398.806 81.1053 396.325 82.512 391.922 82.512V84.512C396.735 84.512 400.184 82.9321 401.732 79.4369L399.904 78.6271ZM395.442 78.048C396.68 78.048 397.734 77.9395 398.556 77.6825L397.96 75.7735C397.417 75.9432 396.594 76.048 395.442 76.048V78.048ZM398.591 77.671C399.531 77.3391 400.295 76.7293 400.874 75.8865L399.226 74.7535C398.867 75.2761 398.435 75.6049 397.925 75.785L398.591 77.671ZM400.888 75.8663C401.698 74.623 402.01 72.657 402.01 70.2H400.01C400.01 72.607 399.682 74.0544 399.212 74.7737L400.888 75.8663ZM402.01 70.2V68.92H400.01V70.2H402.01ZM401.01 67.92H394.61V69.92H401.01V67.92ZM394.61 67.92C393.465 67.92 392.484 68.0261 391.755 68.3067L392.473 70.1733C392.853 70.0272 393.536 69.92 394.61 69.92V67.92ZM391.798 68.2913C390.941 68.5768 390.381 69.2259 390.084 70.0557L391.968 70.7283C392.098 70.3634 392.263 70.2445 392.43 70.1887L391.798 68.2913ZM390.093 70.033C389.809 70.7701 389.706 71.8236 389.706 73.08H391.706C391.706 71.8617 391.816 71.1232 391.959 70.751L390.093 70.033ZM389.706 73.08C389.706 74.2616 389.811 75.2668 390.093 75.999L391.959 75.281C391.814 74.9039 391.706 74.2024 391.706 73.08H389.706ZM390.118 76.0591C390.502 76.892 391.182 77.4501 392.054 77.7407L392.686 75.8433C392.278 75.7072 392.062 75.4974 391.934 75.2209L390.118 76.0591ZM392.112 77.7582C392.887 77.9647 394.022 78.048 395.442 78.048V76.048C394.046 76.048 393.133 75.9606 392.628 75.8258L392.112 77.7582ZM422.078 83H421.078V84H422.078V83ZM422.078 56.824H423.078V55.824H422.078V56.824ZM416.766 56.824H415.766V57.824H416.766V56.824ZM416.766 50.36V49.36H415.766V50.36H416.766ZM422.078 50.36V51.36H423.078V50.36H422.078ZM422.078 40.888V39.888H421.078V40.888H422.078ZM429.758 40.888H430.758V39.888H429.758V40.888ZM429.758 50.36H428.758V51.36H429.758V50.36ZM436.158 50.36H437.158V49.36H436.158V50.36ZM436.158 56.824V57.824H437.158V56.824H436.158ZM429.758 56.824V55.824H428.758V56.824H429.758ZM429.758 83V84H430.758V83H429.758ZM423.078 83V56.824H421.078V83H423.078ZM422.078 55.824H416.766V57.824H422.078V55.824ZM417.766 56.824V50.36H415.766V56.824H417.766ZM416.766 51.36H422.078V49.36H416.766V51.36ZM423.078 50.36V40.888H421.078V50.36H423.078ZM422.078 41.888H429.758V39.888H422.078V41.888ZM428.758 40.888V50.36H430.758V40.888H428.758ZM429.758 51.36H436.158V49.36H429.758V51.36ZM435.158 50.36V56.824H437.158V50.36H435.158ZM436.158 55.824H429.758V57.824H436.158V55.824ZM428.758 56.824V83H430.758V56.824H428.758ZM429.758 82H422.078V84H429.758V82ZM444.48 81.208L443.743 81.8837L443.743 81.8837L444.48 81.208ZM443.2 67.832L444.13 68.1985L444.134 68.1891L443.2 67.832ZM446.016 64.696L446.452 65.5962L446.463 65.5904L446.016 64.696ZM460.16 63.928L460.115 64.927L461.16 64.9745V63.928H460.16ZM459.584 58.296L458.656 58.6674L458.667 58.6961L458.68 58.7241L459.584 58.296ZM457.6 56.696L457.337 57.6608L457.362 57.6676L457.388 57.6732L457.6 56.696ZM448.384 56.504L448.433 57.5028L448.445 57.5022L448.457 57.5013L448.384 56.504ZM444.16 56.824H443.16V57.9512L444.279 57.8169L444.16 56.824ZM444.16 50.808L443.99 49.8225L443.16 49.9657V50.808H444.16ZM463.232 51.128L462.802 52.0309L462.81 52.0347L463.232 51.128ZM466.88 55.16L465.929 55.4696L465.934 55.483L465.938 55.4963L466.88 55.16ZM467.84 83V84H468.84V83H467.84ZM460.672 83L459.674 83.0644L459.734 84H460.672V83ZM460.416 79.032L461.414 78.9676L461.354 78.032H460.416V79.032ZM459.968 79.032V78.032H459.317L459.054 78.6271L459.968 79.032ZM457.408 76.728L457.706 77.6825L457.724 77.677L457.741 77.671L457.408 76.728ZM459.2 75.32L460.024 75.8865L460.031 75.8765L460.038 75.8663L459.2 75.32ZM460.16 68.92H461.16V67.92H460.16V68.92ZM451.264 69.24L451.58 70.1887L451.602 70.1815L451.623 70.1733L451.264 69.24ZM450.176 70.392L451.109 70.751L451.114 70.7397L451.118 70.7283L450.176 70.392ZM450.176 75.64L449.243 75.999L449.254 76.0294L449.268 76.0591L450.176 75.64ZM451.52 76.792L451.204 77.7407L451.233 77.7504L451.262 77.7582L451.52 76.792ZM451.072 82.512C448.242 82.512 446.366 81.7852 445.217 80.5323L443.743 81.8837C445.41 83.7028 447.929 84.512 451.072 84.512V82.512ZM445.217 80.5323C444.058 79.2676 443.368 77.0973 443.368 73.784H441.368C441.368 77.2973 442.086 80.0764 443.743 81.8837L445.217 80.5323ZM443.368 73.784C443.368 71.2748 443.643 69.4362 444.13 68.1985L442.27 67.4655C441.648 69.0438 441.368 71.1732 441.368 73.784H443.368ZM444.134 68.1891C444.603 66.9614 445.372 66.1185 446.452 65.5962L445.58 63.7958C444.015 64.5535 442.906 65.8012 442.266 67.4749L444.134 68.1891ZM446.463 65.5904C447.633 65.0055 449.335 64.672 451.648 64.672V62.672C449.182 62.672 447.13 63.0212 445.569 63.8016L446.463 65.5904ZM451.648 64.672C453.545 64.672 456.364 64.7565 460.115 64.927L460.205 62.929C456.447 62.7582 453.591 62.672 451.648 62.672V64.672ZM461.16 63.928V62.52H459.16V63.928H461.16ZM461.16 62.52C461.16 60.5058 460.976 58.8979 460.488 57.8679L458.68 58.7241C458.96 59.3154 459.16 60.5235 459.16 62.52H461.16ZM460.512 57.9246C460.035 56.7308 459.083 55.995 457.812 55.7188L457.388 57.6732C458.08 57.8237 458.45 58.1546 458.656 58.6674L460.512 57.9246ZM457.863 55.7312C456.782 55.4363 455.018 55.312 452.672 55.312V57.312C455.02 57.312 456.541 57.4437 457.337 57.6608L457.863 55.7312ZM452.672 55.312C451.529 55.312 450.072 55.3778 448.311 55.5067L448.457 57.5013C450.194 57.3742 451.597 57.312 452.672 57.312V55.312ZM448.335 55.5052C446.575 55.5911 445.141 55.6991 444.041 55.8311L444.279 57.8169C445.313 57.6929 446.694 57.5876 448.433 57.5028L448.335 55.5052ZM445.16 56.824V50.808H443.16V56.824H445.16ZM444.33 51.7935C447.989 51.1626 451.58 50.848 455.104 50.848V48.848C451.46 48.848 447.755 49.1734 443.99 49.8225L444.33 51.7935ZM455.104 50.848C458.685 50.848 461.214 51.2746 462.802 52.0309L463.662 50.2251C461.666 49.2748 458.776 48.848 455.104 48.848V50.848ZM462.81 52.0347C464.407 52.7775 465.422 53.9129 465.929 55.4696L467.831 54.8504C467.143 52.7378 465.726 51.1852 463.654 50.2213L462.81 52.0347ZM465.938 55.4963C466.521 57.1276 466.84 59.5737 466.84 62.904H468.84C468.84 59.4929 468.519 56.7764 467.822 54.8237L465.938 55.4963ZM466.84 62.904V83H468.84V62.904H466.84ZM467.84 82H460.672V84H467.84V82ZM461.67 82.9356L461.414 78.9676L459.418 79.0964L459.674 83.0644L461.67 82.9356ZM460.416 78.032H459.968V80.032H460.416V78.032ZM459.054 78.6271C457.956 81.1053 455.475 82.512 451.072 82.512V84.512C455.885 84.512 459.335 82.9321 460.882 79.4369L459.054 78.6271ZM454.592 78.048C455.83 78.048 456.884 77.9395 457.706 77.6825L457.11 75.7735C456.567 75.9432 455.744 76.048 454.592 76.048V78.048ZM457.741 77.671C458.681 77.3391 459.445 76.7293 460.024 75.8865L458.376 74.7535C458.017 75.2761 457.585 75.6049 457.075 75.785L457.741 77.671ZM460.038 75.8663C460.848 74.623 461.16 72.657 461.16 70.2H459.16C459.16 72.607 458.832 74.0544 458.362 74.7737L460.038 75.8663ZM461.16 70.2V68.92H459.16V70.2H461.16ZM460.16 67.92H453.76V69.92H460.16V67.92ZM453.76 67.92C452.615 67.92 451.634 68.0261 450.905 68.3067L451.623 70.1733C452.003 70.0272 452.686 69.92 453.76 69.92V67.92ZM450.948 68.2913C450.091 68.5768 449.531 69.2259 449.234 70.0557L451.118 70.7283C451.248 70.3634 451.413 70.2445 451.58 70.1887L450.948 68.2913ZM449.243 70.033C448.959 70.7701 448.856 71.8236 448.856 73.08H450.856C450.856 71.8617 450.966 71.1232 451.109 70.751L449.243 70.033ZM448.856 73.08C448.856 74.2616 448.961 75.2668 449.243 75.999L451.109 75.281C450.964 74.9039 450.856 74.2024 450.856 73.08H448.856ZM449.268 76.0591C449.652 76.892 450.332 77.4501 451.204 77.7407L451.836 75.8433C451.428 75.7072 451.212 75.4974 451.084 75.2209L449.268 76.0591ZM451.262 77.7582C452.037 77.9647 453.172 78.048 454.592 78.048V76.048C453.196 76.048 452.283 75.9606 451.778 75.8258L451.262 77.7582ZM490.117 82.552L489.691 83.4568L489.707 83.4643L489.723 83.4711L490.117 82.552ZM486.853 78.968L487.773 78.5769L487.514 77.968H486.853V78.968ZM486.405 78.968V77.968H485.466L485.407 78.9046L486.405 78.968ZM486.149 83V84H487.087L487.147 83.0634L486.149 83ZM478.981 83H477.981V84H478.981V83ZM478.981 35.448V34.448H477.981V35.448H478.981ZM486.661 35.448H487.661V34.448H486.661V35.448ZM486.661 53.944H485.661V54.944H486.661V53.944ZM487.109 53.944V54.944H487.719L487.998 54.4013L487.109 53.944ZM490.309 50.808L490.709 51.7242L490.716 51.7213L490.722 51.7184L490.309 50.808ZM501.189 51.384L500.589 52.184L500.594 52.1884L500.6 52.1927L501.189 51.384ZM504.197 56.568L503.225 56.8065L503.228 56.8167L503.231 56.8267L504.197 56.568ZM504.197 76.92L505.162 77.1787L505.164 77.1745L504.197 76.92ZM501.125 82.04L501.696 82.8604L501.705 82.8546L501.713 82.8487L501.125 82.04ZM495.685 76.088L496.175 76.9596L496.183 76.9548L496.192 76.9499L495.685 76.088ZM497.093 73.528L496.111 73.338L496.108 73.3508L496.106 73.3636L497.093 73.528ZM497.093 59.96L496.105 60.1192L496.108 60.1377L496.112 60.1561L497.093 59.96ZM495.685 57.4L495.155 58.248L495.185 58.267L495.217 58.2838L495.685 57.4ZM487.621 58.808L488.504 59.2759L488.52 59.2455L488.534 59.2141L487.621 58.808ZM486.853 61.752L485.858 61.6491L485.858 61.6491L486.853 61.752ZM486.853 71.544L485.858 71.6505L485.859 71.6544L486.853 71.544ZM487.557 74.36L488.485 73.9886L488.474 73.9611L488.461 73.9342L487.557 74.36ZM489.093 76.152L489.54 75.2576L489.54 75.2576L489.093 76.152ZM495.237 82.512C493.428 82.512 491.859 82.2107 490.51 81.6329L489.723 83.4711C491.361 84.1733 493.205 84.512 495.237 84.512V82.512ZM490.542 81.6472C489.348 81.0854 488.418 80.0951 487.773 78.5769L485.932 79.3591C486.738 81.2543 487.983 82.6533 489.691 83.4568L490.542 81.6472ZM486.853 77.968H486.405V79.968H486.853V77.968ZM485.407 78.9046L485.151 82.9366L487.147 83.0634L487.403 79.0314L485.407 78.9046ZM486.149 82H478.981V84H486.149V82ZM479.981 83V35.448H477.981V83H479.981ZM478.981 36.448H486.661V34.448H478.981V36.448ZM485.661 35.448V53.944H487.661V35.448H485.661ZM486.661 54.944H487.109V52.944H486.661V54.944ZM487.998 54.4013C488.675 53.0851 489.581 52.2176 490.709 51.7242L489.908 49.8918C488.305 50.593 487.078 51.8162 486.219 53.4867L487.998 54.4013ZM490.722 51.7184C491.968 51.1522 493.525 50.848 495.429 50.848V48.848C493.321 48.848 491.465 49.1838 489.895 49.8976L490.722 51.7184ZM495.429 50.848C497.781 50.848 499.459 51.3366 500.589 52.184L501.789 50.584C500.188 49.3834 498.026 48.848 495.429 48.848V50.848ZM500.6 52.1927C501.749 53.028 502.66 54.5053 503.225 56.8065L505.168 56.3295C504.538 53.7667 503.444 51.788 501.777 50.5753L500.6 52.1927ZM503.231 56.8267C503.837 59.0911 504.157 62.36 504.157 66.68H506.157C506.157 62.296 505.836 58.8235 505.162 56.3093L503.231 56.8267ZM504.157 66.68C504.157 71.0425 503.837 74.3561 503.229 76.6655L505.164 77.1745C505.836 74.6199 506.157 71.1068 506.157 66.68H504.157ZM503.231 76.6613C502.625 78.9206 501.695 80.3886 500.536 81.2313L501.713 82.8487C503.37 81.6434 504.488 79.6981 505.162 77.1787L503.231 76.6613ZM500.553 81.2196C499.374 82.0411 497.64 82.512 495.237 82.512V84.512C497.868 84.512 500.059 84.0016 501.696 82.8604L500.553 81.2196ZM492.037 77.664C493.794 77.664 495.246 77.4822 496.175 76.9596L495.194 75.2164C494.758 75.4618 493.777 75.664 492.037 75.664V77.664ZM496.192 76.9499C497.284 76.3071 497.843 75.1052 498.079 73.6924L496.106 73.3636C495.915 74.5108 495.535 75.0156 495.177 75.2261L496.192 76.9499ZM498.074 73.718C498.35 72.2914 498.477 69.9225 498.477 66.68H496.477C496.477 69.9228 496.347 72.1192 496.111 73.338L498.074 73.718ZM498.477 66.68C498.477 63.4816 498.351 61.1516 498.073 59.7639L496.112 60.1561C496.346 61.3284 496.477 63.4784 496.477 66.68H498.477ZM498.08 59.8008C497.848 58.3641 497.293 57.1198 496.152 56.5162L495.217 58.2838C495.527 58.4482 495.91 58.9106 496.105 60.1192L498.08 59.8008ZM496.215 56.552C495.272 55.9628 493.8 55.76 492.037 55.76V57.76C493.772 57.76 494.732 57.9839 495.155 58.248L496.215 56.552ZM492.037 55.76C490.741 55.76 489.621 55.9131 488.756 56.2918L489.557 58.1242C490.057 57.9056 490.858 57.76 492.037 57.76V55.76ZM488.756 56.2918C487.815 56.7035 487.135 57.4372 486.707 58.4019L488.534 59.2141C488.788 58.6428 489.133 58.3098 489.557 58.1242L488.756 56.2918ZM486.737 58.3401C486.27 59.2217 485.993 60.3434 485.858 61.6491L487.847 61.8549C487.968 60.6859 488.203 59.8449 488.504 59.2759L486.737 58.3401ZM485.858 61.6491C485.725 62.9353 485.661 64.6165 485.661 66.68H487.661C487.661 64.6475 487.724 63.0434 487.847 61.8549L485.858 61.6491ZM485.661 66.68C485.661 68.7426 485.725 70.4044 485.858 71.6505L487.847 71.4375C487.724 70.2943 487.661 68.7134 487.661 66.68H485.661ZM485.859 71.6544C485.994 72.8714 486.248 73.9273 486.652 74.7858L488.461 73.9342C488.183 73.342 487.967 72.5206 487.846 71.4336L485.859 71.6544ZM486.628 74.7314C487.041 75.7634 487.701 76.5742 488.645 77.0464L489.54 75.2576C489.119 75.0472 488.755 74.6633 488.485 73.9886L486.628 74.7314ZM488.645 77.0464C489.531 77.4891 490.693 77.664 492.037 77.664V75.664C490.82 75.664 490.02 75.4976 489.54 75.2576L488.645 77.0464ZM515.818 81.208L515.08 81.8837L515.08 81.8837L515.818 81.208ZM514.538 67.832L515.468 68.1985L515.472 68.1891L514.538 67.832ZM517.354 64.696L517.789 65.5962L517.801 65.5904L517.354 64.696ZM531.498 63.928L531.452 64.927L532.498 64.9745V63.928H531.498ZM530.922 58.296L529.993 58.6674L530.005 58.6961L530.018 58.7241L530.922 58.296ZM528.938 56.696L528.674 57.6608L528.7 57.6676L528.725 57.6732L528.938 56.696ZM519.722 56.504L519.77 57.5028L519.782 57.5022L519.795 57.5013L519.722 56.504ZM515.498 56.824H514.498V57.9512L515.617 57.8169L515.498 56.824ZM515.498 50.808L515.328 49.8225L514.498 49.9657V50.808H515.498ZM534.57 51.128L534.14 52.0309L534.148 52.0347L534.57 51.128ZM538.218 55.16L537.267 55.4696L537.271 55.483L537.276 55.4963L538.218 55.16ZM539.178 83V84H540.178V83H539.178ZM532.01 83L531.012 83.0644L531.072 84H532.01V83ZM531.754 79.032L532.751 78.9676L532.691 78.032H531.754V79.032ZM531.306 79.032V78.032H530.655L530.391 78.6271L531.306 79.032ZM528.746 76.728L529.044 77.6825L529.061 77.677L529.078 77.671L528.746 76.728ZM530.538 75.32L531.362 75.8865L531.368 75.8765L531.375 75.8663L530.538 75.32ZM531.498 68.92H532.498V67.92H531.498V68.92ZM522.602 69.24L522.918 70.1887L522.939 70.1815L522.961 70.1733L522.602 69.24ZM521.514 70.392L522.447 70.751L522.451 70.7397L522.455 70.7283L521.514 70.392ZM521.514 75.64L520.58 75.999L520.592 76.0294L520.606 76.0591L521.514 75.64ZM522.858 76.792L522.541 77.7407L522.57 77.7504L522.6 77.7582L522.858 76.792ZM522.41 82.512C519.579 82.512 517.703 81.7852 516.555 80.5323L515.08 81.8837C516.748 83.7028 519.266 84.512 522.41 84.512V82.512ZM516.555 80.5323C515.395 79.2676 514.706 77.0973 514.706 73.784H512.706C512.706 77.2973 513.424 80.0764 515.08 81.8837L516.555 80.5323ZM514.706 73.784C514.706 71.2748 514.98 69.4362 515.468 68.1985L513.607 67.4655C512.985 69.0438 512.706 71.1732 512.706 73.784H514.706ZM515.472 68.1891C515.941 66.9614 516.71 66.1185 517.789 65.5962L516.918 63.7958C515.352 64.5535 514.243 65.8012 513.603 67.4749L515.472 68.1891ZM517.801 65.5904C518.971 65.0055 520.672 64.672 522.986 64.672V62.672C520.52 62.672 518.467 63.0212 516.906 63.8016L517.801 65.5904ZM522.986 64.672C524.882 64.672 527.701 64.7565 531.452 64.927L531.543 62.929C527.785 62.7582 524.929 62.672 522.986 62.672V64.672ZM532.498 63.928V62.52H530.498V63.928H532.498ZM532.498 62.52C532.498 60.5058 532.313 58.8979 531.825 57.8679L530.018 58.7241C530.298 59.3154 530.498 60.5235 530.498 62.52H532.498ZM531.85 57.9246C531.372 56.7308 530.42 55.995 529.15 55.7188L528.725 57.6732C529.417 57.8237 529.788 58.1546 529.993 58.6674L531.85 57.9246ZM529.201 55.7312C528.119 55.4363 526.355 55.312 524.01 55.312V57.312C526.357 57.312 527.878 57.4437 528.674 57.6608L529.201 55.7312ZM524.01 55.312C522.866 55.312 521.41 55.3778 519.649 55.5067L519.795 57.5013C521.532 57.3742 522.934 57.312 524.01 57.312V55.312ZM519.673 55.5052C517.913 55.5911 516.478 55.6991 515.378 55.8311L515.617 57.8169C516.65 57.6929 518.032 57.5876 519.77 57.5028L519.673 55.5052ZM516.498 56.824V50.808H514.498V56.824H516.498ZM515.667 51.7935C519.326 51.1626 522.917 50.848 526.442 50.848V48.848C522.798 48.848 519.093 49.1734 515.328 49.8225L515.667 51.7935ZM526.442 50.848C530.023 50.848 532.551 51.2746 534.14 52.0309L534.999 50.2251C533.004 49.2748 530.114 48.848 526.442 48.848V50.848ZM534.148 52.0347C535.745 52.7775 536.76 53.9129 537.267 55.4696L539.168 54.8504C538.481 52.7378 537.064 51.1852 534.991 50.2213L534.148 52.0347ZM537.276 55.4963C537.858 57.1276 538.178 59.5737 538.178 62.904H540.178C540.178 59.4929 539.857 56.7764 539.159 54.8237L537.276 55.4963ZM538.178 62.904V83H540.178V62.904H538.178ZM539.178 82H532.01V84H539.178V82ZM533.007 82.9356L532.751 78.9676L530.756 79.0964L531.012 83.0644L533.007 82.9356ZM531.754 78.032H531.306V80.032H531.754V78.032ZM530.391 78.6271C529.294 81.1053 526.812 82.512 522.41 82.512V84.512C527.223 84.512 530.672 82.9321 532.22 79.4369L530.391 78.6271ZM525.93 78.048C527.167 78.048 528.221 77.9395 529.044 77.6825L528.447 75.7735C527.904 75.9432 527.081 76.048 525.93 76.048V78.048ZM529.078 77.671C530.019 77.3391 530.782 76.7293 531.362 75.8865L529.713 74.7535C529.354 75.2761 528.923 75.6049 528.413 75.785L529.078 77.671ZM531.375 75.8663C532.186 74.623 532.498 72.657 532.498 70.2H530.498C530.498 72.607 530.169 74.0544 529.7 74.7737L531.375 75.8663ZM532.498 70.2V68.92H530.498V70.2H532.498ZM531.498 67.92H525.098V69.92H531.498V67.92ZM525.098 67.92C523.953 67.92 522.972 68.0261 522.243 68.3067L522.961 70.1733C523.34 70.0272 524.023 69.92 525.098 69.92V67.92ZM522.285 68.2913C521.429 68.5768 520.868 69.2259 520.572 70.0557L522.455 70.7283C522.586 70.3634 522.75 70.2445 522.918 70.1887L522.285 68.2913ZM520.58 70.033C520.297 70.7701 520.194 71.8236 520.194 73.08H522.194C522.194 71.8617 522.304 71.1232 522.447 70.751L520.58 70.033ZM520.194 73.08C520.194 74.2616 520.299 75.2668 520.58 75.999L522.447 75.281C522.302 74.9039 522.194 74.2024 522.194 73.08H520.194ZM520.606 76.0591C520.99 76.892 521.67 77.4501 522.541 77.7407L523.174 75.8433C522.765 75.7072 522.549 75.4974 522.421 75.2209L520.606 76.0591ZM522.6 77.7582C523.374 77.9647 524.509 78.048 525.93 78.048V76.048C524.534 76.048 523.621 75.9606 523.115 75.8258L522.6 77.7582ZM555.054 83.256L554.971 84.2525L555.054 83.256ZM549.678 82.616H548.678V83.4631L549.514 83.6024L549.678 82.616ZM549.678 76.536L549.799 75.5433L548.678 75.407V76.536H549.678ZM562.606 76.792L562.351 75.8248L562.338 75.8285L562.606 76.792ZM564.142 75.768L563.264 75.2891L563.247 75.3211L563.232 75.3542L564.142 75.768ZM564.27 71.416L563.312 71.7033L563.325 71.746L563.341 71.7874L564.27 71.416ZM563.502 70.52L563.096 71.4338L563.096 71.4338L563.502 70.52ZM561.39 70.072L561.255 71.0629L561.266 71.0643L561.39 70.072ZM554.798 69.176L554.933 68.1851L554.924 68.184L554.798 69.176ZM549.998 66.552L549.125 67.0398L549.13 67.0495L549.136 67.059L549.998 66.552ZM550.19 53.56L549.37 52.9882L549.364 52.9967L549.358 53.0053L550.19 53.56ZM554.222 50.68L554.509 51.6378L554.52 51.6346L554.531 51.631L554.222 50.68ZM565.806 50.168L565.688 51.161L565.701 51.1625L565.713 51.1637L565.806 50.168ZM570.286 50.872H571.286V50.0982L570.537 49.904L570.286 50.872ZM570.286 56.888L570.138 57.877L571.286 58.0483V56.888H570.286ZM558.318 56.504L558.492 57.4888L558.513 57.485L558.535 57.4802L558.318 56.504ZM556.718 57.464L555.886 56.9093L555.88 56.9181L555.874 56.9271L556.718 57.464ZM556.398 61.688L555.417 61.8841L555.43 61.9452L555.449 62.0042L556.398 61.688ZM557.102 62.52L556.655 63.4144L556.675 63.4246L556.696 63.4338L557.102 62.52ZM559.022 62.968L558.881 63.9579L558.889 63.9592L558.898 63.9603L559.022 62.968ZM565.678 63.8L565.823 62.8106L565.813 62.8091L565.802 62.8077L565.678 63.8ZM569.134 64.888L568.619 65.7455L568.629 65.751L568.638 65.7562L569.134 64.888ZM571.182 67.64L570.24 67.9744L570.246 67.993L570.253 68.0114L571.182 67.64ZM570.606 79.672L569.748 79.1575L569.743 79.1666L569.738 79.1759L570.606 79.672ZM566.894 82.744L567.202 83.6952L567.21 83.6928L567.218 83.6902L566.894 82.744ZM560.686 82.512C559.012 82.512 557.163 82.4283 555.137 82.2595L554.971 84.2525C557.041 84.4251 558.947 84.512 560.686 84.512V82.512ZM555.137 82.2595C553.108 82.0904 551.344 81.88 549.842 81.6296L549.514 83.6024C551.083 83.864 552.904 84.0803 554.971 84.2525L555.137 82.2595ZM550.678 82.616V76.536H548.678V82.616H550.678ZM549.557 77.5287C552.753 77.9174 555.908 78.112 559.022 78.112V76.112C555.992 76.112 552.917 75.9226 549.799 75.5433L549.557 77.5287ZM559.022 78.112C560.661 78.112 561.969 78.0069 562.874 77.7555L562.338 75.8285C561.707 76.0037 560.626 76.112 559.022 76.112V78.112ZM562.86 77.7591C563.782 77.5165 564.654 77.058 565.052 76.1818L563.232 75.3542C563.203 75.4167 563.051 75.6408 562.351 75.8249L562.86 77.7591ZM565.02 76.2469C565.398 75.5534 565.526 74.6224 565.526 73.592H563.526C563.526 74.5243 563.398 75.0439 563.264 75.2891L565.02 76.2469ZM565.526 73.592C565.526 72.5589 565.446 71.664 565.198 71.0446L563.341 71.7874C563.435 72.0213 563.526 72.5771 563.526 73.592H565.526ZM565.228 71.1287C565.022 70.4418 564.576 69.9031 563.908 69.6062L563.096 71.4338C563.196 71.4782 563.262 71.5369 563.312 71.7033L565.228 71.1287ZM563.908 69.6062C563.374 69.3688 562.535 69.2073 561.514 69.0797L561.266 71.0643C562.293 71.1927 562.862 71.3299 563.096 71.4338L563.908 69.6062ZM561.525 69.0811L554.933 68.1851L554.663 70.1669L561.255 71.0629L561.525 69.0811ZM554.924 68.184C552.753 67.9077 551.499 67.1322 550.86 66.045L549.136 67.059C550.203 68.8732 552.15 69.847 554.672 70.168L554.924 68.184ZM550.871 66.0642C550.189 64.8445 549.782 62.7547 549.782 59.64H547.782C547.782 62.8399 548.185 65.3582 549.125 67.0398L550.871 66.0642ZM549.782 59.64C549.782 57.0895 550.239 55.2899 551.022 54.1147L549.358 53.0053C548.264 54.6461 547.782 56.8999 547.782 59.64H549.782ZM551.01 54.1318C551.857 52.9164 553.01 52.0877 554.509 51.6378L553.935 49.7222C552.021 50.2963 550.485 51.3876 549.37 52.9882L551.01 54.1318ZM554.531 51.631C556.104 51.1198 558.145 50.848 560.686 50.848V48.848C558.021 48.848 555.753 49.1308 553.913 49.729L554.531 51.631ZM560.686 50.848C562.264 50.848 563.931 50.9518 565.688 51.161L565.924 49.175C564.097 48.9575 562.351 48.848 560.686 48.848V50.848ZM565.713 51.1637C567.52 51.3318 568.955 51.56 570.035 51.84L570.537 49.904C569.313 49.5867 567.761 49.3456 565.899 49.1723L565.713 51.1637ZM569.286 50.872V56.888H571.286V50.872H569.286ZM570.434 55.899C567.526 55.465 564.597 55.248 561.646 55.248V57.248C564.498 57.248 567.329 57.4577 570.138 57.877L570.434 55.899ZM561.646 55.248C560.172 55.248 558.977 55.3332 558.101 55.5278L558.535 57.4802C559.195 57.3334 560.218 57.248 561.646 57.248V55.248ZM558.144 55.5192C557.207 55.6846 556.408 56.1259 555.886 56.9093L557.55 58.0187C557.71 57.7781 557.978 57.5794 558.492 57.4888L558.144 55.5192ZM555.874 56.9271C555.422 57.6379 555.27 58.5953 555.27 59.64H557.27C557.27 58.7221 557.417 58.2287 557.562 58.0009L555.874 56.9271ZM555.27 59.64C555.27 60.587 555.311 61.354 555.417 61.8841L557.379 61.4919C557.314 61.1687 557.27 60.5703 557.27 59.64H555.27ZM555.449 62.0042C555.656 62.6229 556.061 63.1174 556.655 63.4144L557.549 61.6256C557.461 61.5813 557.396 61.5211 557.347 61.3718L555.449 62.0042ZM556.696 63.4338C557.215 63.6646 557.973 63.8283 558.881 63.9579L559.163 61.978C558.279 61.8517 557.757 61.7167 557.508 61.6062L556.696 63.4338ZM558.898 63.9603L565.554 64.7923L565.802 62.8077L559.146 61.9757L558.898 63.9603ZM565.532 64.7894C566.909 64.9918 567.92 65.3255 568.619 65.7455L569.648 64.0305C568.642 63.4265 567.348 63.0349 565.823 62.8106L565.532 64.7894ZM568.638 65.7562C569.262 66.1126 569.821 66.7959 570.24 67.9744L572.124 67.3056C571.604 65.8388 570.798 64.6874 569.63 64.0198L568.638 65.7562ZM570.253 68.0114C570.695 69.1141 570.95 70.8397 570.95 73.272H572.95C572.95 70.7549 572.693 68.7259 572.11 67.2686L570.253 68.0114ZM570.95 73.272C570.95 75.9615 570.511 77.886 569.748 79.1575L571.463 80.1865C572.493 78.4714 572.95 76.1292 572.95 73.272H570.95ZM569.738 79.1759C569.005 80.4588 567.96 81.3223 566.57 81.7978L567.218 83.6902C569.07 83.0564 570.501 81.8719 571.474 80.1681L569.738 79.1759ZM566.585 81.7928C565.145 82.2599 563.192 82.512 560.686 82.512V84.512C563.3 84.512 565.485 84.2521 567.202 83.6952L566.585 81.7928ZM606.156 69.176V70.176H607.156V69.176H606.156ZM588.3 69.176V68.176H587.3V69.176H588.3ZM588.684 74.552L587.714 74.7945L587.72 74.819L587.728 74.8432L588.684 74.552ZM590.668 76.6L590.317 77.5363L590.34 77.5449L590.364 77.5524L590.668 76.6ZM605.132 76.6H606.132V75.4877L605.026 75.6056L605.132 76.6ZM605.132 82.552L605.367 83.5241L606.132 83.3393V82.552H605.132ZM600.268 83.256L600.184 82.2596L600.184 82.2596L600.268 83.256ZM585.164 81.912L584.664 82.7779L584.676 82.7844L584.687 82.7906L585.164 81.912ZM581.388 76.92L580.417 77.1582L580.42 77.1691L580.423 77.18L581.388 76.92ZM581.388 56.76L580.42 56.509L580.417 56.5218L581.388 56.76ZM585.1 51.576L584.577 50.7237L584.577 50.7237L585.1 51.576ZM602.252 51.512L601.707 52.3505L601.717 52.3565L602.252 51.512ZM605.516 56.504L604.534 56.6928L604.535 56.6964L605.516 56.504ZM588.684 58.872L587.714 58.6295L587.71 58.6487L587.706 58.668L588.684 58.872ZM588.3 63.928L587.301 63.9098L587.282 64.928H588.3V63.928ZM598.86 63.928V64.928H599.86V63.928H598.86ZM598.412 58.808L597.44 59.0414L597.444 59.0596L597.45 59.0776L598.412 58.808ZM596.94 56.696L596.493 57.5904L596.504 57.5957L596.515 57.6008L596.94 56.696ZM606.156 68.176H588.3V70.176H606.156V68.176ZM587.3 69.176C587.3 71.7347 587.425 73.6384 587.714 74.7945L589.655 74.3095C589.432 73.4176 589.3 71.7373 589.3 69.176H587.3ZM587.728 74.8432C588.124 76.1441 589.025 77.0515 590.317 77.5363L591.02 75.6637C590.264 75.3805 589.843 74.9226 589.641 74.2608L587.728 74.8432ZM590.364 77.5524C591.593 77.9457 593.567 78.112 596.172 78.112V76.112C593.573 76.112 591.878 75.9369 590.973 75.6476L590.364 77.5524ZM596.172 78.112C598.986 78.112 602.009 77.9389 605.239 77.5944L605.026 75.6056C601.856 75.9438 598.905 76.112 596.172 76.112V78.112ZM604.132 76.6V82.552H606.132V76.6H604.132ZM604.898 81.5799C603.73 81.8619 602.164 82.0911 600.184 82.2596L600.353 84.2524C602.384 84.0796 604.061 83.8394 605.367 83.5241L604.898 81.5799ZM600.184 82.2596C598.205 82.428 596.292 82.512 594.444 82.512V84.512C596.352 84.512 598.322 84.4253 600.353 84.2524L600.184 82.2596ZM594.444 82.512C590.263 82.512 587.378 81.977 585.642 81.0334L584.687 82.7906C586.876 83.9804 590.178 84.512 594.444 84.512V82.512ZM585.665 81.0461C583.983 80.0745 582.885 78.6334 582.354 76.66L580.423 77.18C581.086 79.6439 582.506 81.5309 584.664 82.7779L585.665 81.0461ZM582.36 76.6818C581.835 74.5408 581.556 71.2467 581.556 66.744H579.556C579.556 71.2867 579.833 74.7766 580.417 77.1582L582.36 76.6818ZM581.556 66.744C581.556 62.3721 581.834 59.1406 582.36 56.9982L580.417 56.5218C579.833 58.9021 579.556 62.3266 579.556 66.744H581.556ZM582.356 57.011C582.895 54.9353 583.985 53.4335 585.624 52.4283L584.577 50.7237C582.461 52.0225 581.077 53.9767 580.42 56.509L582.356 57.011ZM585.624 52.4283C587.262 51.4229 589.958 50.848 593.868 50.848V48.848C589.843 48.848 586.694 49.4251 584.577 50.7237L585.624 52.4283ZM593.868 50.848C597.706 50.848 600.254 51.4055 601.708 52.3504L602.797 50.6736C600.838 49.3998 597.797 48.848 593.868 48.848V50.848ZM601.717 52.3565C603.211 53.3039 604.155 54.7176 604.534 56.6928L606.498 56.3152C606.025 53.853 604.793 51.9387 602.788 50.6675L601.717 52.3565ZM604.535 56.6964C604.942 58.7718 605.156 62.1037 605.156 66.744H607.156C607.156 62.083 606.944 58.5882 606.498 56.3116L604.535 56.6964ZM605.156 66.744V69.176H607.156V66.744H605.156ZM593.74 55.184C592.048 55.184 590.643 55.371 589.689 55.8762L590.624 57.6438C591.121 57.3809 592.105 57.184 593.74 57.184V55.184ZM589.689 55.8762C588.645 56.4287 588.018 57.414 587.714 58.6295L589.655 59.1145C589.863 58.282 590.217 57.8593 590.624 57.6438L589.689 55.8762ZM587.706 58.668C587.471 59.7913 587.343 61.5581 587.301 63.9098L589.3 63.9462C589.343 61.6045 589.471 60.0007 589.663 59.076L587.706 58.668ZM588.3 64.928H598.86V62.928H588.3V64.928ZM599.86 63.928C599.86 61.5683 599.713 59.7451 599.375 58.5384L597.45 59.0776C597.709 60.0042 597.86 61.5944 597.86 63.928H599.86ZM599.385 58.5746C599.086 57.3282 598.458 56.305 597.366 55.7912L596.515 57.6008C596.873 57.7696 597.227 58.1544 597.44 59.0414L599.385 58.5746ZM597.388 55.8016C596.49 55.353 595.231 55.184 593.74 55.184V57.184C595.152 57.184 596.025 57.3564 596.493 57.5904L597.388 55.8016Z" fill="#FFE600"/>
</g>
<defs>
<filter id="filter0_d" x="19" y="5" width="165" height="144" filterUnits="userSpaceOnUse" color-interpolation-filters="sRGB">
<feFlood flood-opacity="0" result="BackgroundImageFix"/>
<feColorMatrix in="SourceAlpha" type="matrix" values="0 0 0 0 0 0 0 0 0 0 0 0 0 0 0 0 0 0 127 0"/>
<feOffset dy="4"/>
<feGaussianBlur stdDeviation="2"/>
<feColorMatrix type="matrix" values="0 0 0 0 0 0 0 0 0 0 0 0 0 0 0 0 0 0 0.25 0"/>
<feBlend mode="normal" in2="BackgroundImageFix" result="effect1_dropShadow"/>
<feBlend mode="normal" in="SourceGraphic" in2="effect1_dropShadow" result="shape"/>
</filter>
<clipPath id="clip0">
<rect width="617" height="141" fill="white"/>
</clipPath>
<clipPath id="clip1">
<rect width="157" height="136" fill="white" transform="translate(23 5)"/>
</clipPath>
</defs>
</svg>
